<svg width="324" height="40" viewBox="0 0 324 40" fill="none" xmlns="http://www.w3.org/2000/svg">
<path d="M30.375 24.4H8.82897V19.12H36.612C35.883 16.88 33.534 14.8 29.403 14.8H9.23397C4.61697 14.8 1.94397 16.48 1.94397 20.16V24.08C1.94397 27.28 4.69797 29.12 8.74797 29.12H30.537V34.72H1.21497C1.94397 37.76 4.29297 39.36 8.50497 39.36H30.456C35.073 39.36 37.341 37.6 37.341 33.84V29.92C37.341 26.48 34.668 24.64 30.375 24.4Z" fill="white"/>
<path d="M74.358 14.88H47.79V39.44H55.323V30H74.925C80.352 30 83.349 28.16 83.349 23.84V21.12C83.268 17.12 79.866 14.88 74.358 14.88ZM76.788 22.72C76.788 24.48 76.464 25.44 73.548 25.44H55.323L55.404 19.04H73.224C76.464 19.04 76.869 20 76.869 21.68V22.72H76.788Z" fill="white"/>
<path d="M105.219 13.84L100.683 19.36L108.378 29.84H92.34L88.371 34H111.537L115.506 39.44H124.416L105.219 13.84Z" fill="white"/>
<path d="M138.834 19.12H167.022C166.293 16.24 163.458 14.8 159.408 14.8H138.348C134.703 14.8 131.22 16.24 131.22 20.16V33.92C131.22 37.84 134.703 39.28 138.348 39.28H159.651C164.511 39.28 166.212 37.92 167.022 34.64H138.834V19.12Z" fill="white"/>
<path d="M184.923 34.8V27.28H200.07V23.12H177.309V39.44H210.924V34.8H184.923Z" fill="white"/>
<path d="M212.058 14.88H178.119V19.2H212.058V14.88Z" fill="white"/>
<path d="M232.956 14.88H221.13L235.062 24.96C237.087 23.6 239.436 22.16 241.542 20.96L232.956 14.88ZM250.128 27.44C248.103 28.8 246.078 30.32 244.134 31.76L254.664 39.36H266.571L250.128 27.44Z" fill="white"/>
<path d="M323.19 0.559998C258.39 4.24 228.42 31.6 221.697 38.08L220.32 39.36H232.308C264.708 7.28 311.283 1.6 323.19 0.559998Z" fill="white"/>
</svg>
